<?xml version="1.0" encoding="utf-8"?>
<!-- Generator: Adobe Illustrator 25.0.1, SVG Export Plug-In . SVG Version: 6.00 Build 0)  -->
<svg version="1.1" id="Layer_1" xmlns="http://www.w3.org/2000/svg" xmlns:xlink="http://www.w3.org/1999/xlink" x="0px" y="0px"
	 viewBox="0 0 34 34" enable-background="new 0 0 34 34" xml:space="preserve">
<path fill="#1034A6" d="M17,0c9.4,0,17,7.6,17,17s-7.6,17-17,17S0,26.4,0,17S7.6,0,17,0z M25.4,15.2L24,15c-0.1-0.4-0.3-0.7-0.4-1.1
	l0.9-1.1c0.4-0.5,0.3-1.1-0.1-1.5l-1.2-1.2C22.7,9.7,22,9.6,21.6,10l-1.1,0.9c-0.3-0.2-0.7-0.3-1.1-0.4L19.2,9c-0.1-0.6-0.6-1-1.1-1
	h-1.7c-0.6,0-1.1,0.4-1.1,1L15,10.4c-0.4,0.1-0.7,0.3-1.1,0.4L12.8,10c-0.5-0.4-1.1-0.3-1.5,0.1l-1.2,1.2c-0.4,0.4-0.5,1.1-0.1,1.5
	l0.9,1.1c-0.2,0.3-0.3,0.7-0.4,1.1L9,15.2c-0.6,0.1-1,0.6-1,1.1V18c0,0.6,0.4,1.1,1,1.1l1.4,0.2c0.1,0.4,0.3,0.7,0.4,1.1L10,21.6
	c-0.4,0.5-0.3,1.1,0.1,1.5l1.2,1.2c0.4,0.4,1.1,0.5,1.5,0.1l1.1-0.9c0.3,0.2,0.7,0.3,1.1,0.4l0.2,1.4c0.1,0.6,0.6,1,1.1,1H18
	c0.6,0,1.1-0.4,1.1-1l0.2-1.4c0.4-0.1,0.7-0.3,1.1-0.4l1.1,0.9c0.5,0.4,1.1,0.3,1.5-0.1l1.2-1.2c0.4-0.4,0.5-1.1,0.1-1.5l-0.9-1.1
	c0.2-0.3,0.3-0.7,0.4-1.1l1.4-0.2c0.6-0.1,1-0.6,1-1.1v-1.7C26.4,15.8,26,15.3,25.4,15.2z M17.2,21c-2.1,0-3.8-1.7-3.8-3.8
	s1.7-3.8,3.8-3.8s3.8,1.7,3.8,3.8S19.3,21,17.2,21L17.2,21z"/>
</svg>
