<?xml version="1.0" encoding="utf-8"?>
<!-- Generator: Adobe Illustrator 25.1.0, SVG Export Plug-In . SVG Version: 6.00 Build 0)  -->
<svg version="1.1" id="Layer_1" xmlns="http://www.w3.org/2000/svg" xmlns:xlink="http://www.w3.org/1999/xlink" x="0px" y="0px"
	 viewBox="0 0 833.2 729.8" enable-background="new 0 0 833.2 729.8" xml:space="preserve">
<path fill="#3699FF" d="M832.7,167.6c-5.3-8.2-9.6-17.5-16.5-24c-8.7-8.3-19.4-13.1-32.7-13c-65.9,0.3-131.8-0.3-197.7-0.6c-1.8,0-3.5,0-5.8,0
	c0-8.7,0.1-16.6,0-24.6c-0.2-15-1.3-30-7.2-44.1C560.2,31.2,527.4-0.6,480.6,0c-39.8,0.5-79.6,0-119.3,0.3
	c-11.4,0.1-23.2,0.3-34.2,3c-40.1,9.9-69.8,46.2-72.3,87.4c-0.8,12.7-0.1,25.6-0.1,39.1c-3.3,0-4.9,0-6.5,0
	c-68.6,0.3-137.2,0.6-205.7,1c-2,0-4.2,0-5.8,0.8c-6,3.2-12.6,5.9-17.5,10.4c-10.8,9.7-18.6,21-18.6,36.8C0.6,251.6,0,324.2,0,396.7
	c0,27,0.3,53.9,1.8,80.8c1.3,23.2,23.1,42.3,46.5,42.8c6.7,0.1,13.3,0.1,20,0.1c88.1,0.2,176.1,0.5,264.2,0.7c1.9,0,3.8-0.2,6.1-0.3
	c0-2.7-0.1-4.9,0-7c0.5-13.6,0.9-27.3,1.4-40.9c0.7-18.5,24.1-42.3,44.3-42c21.3,0.3,42.6,0.5,63.9-0.1
	c21.2-0.7,46.1,24.2,45.9,45.4c-0.1,13.1,0.7,26.3,1.1,39.4c0.1,1.7,0.2,3.5,0.4,5.5c2.2,0,3.9,0,5.5,0c23.8-0.1,47.6-0.2,71.4-0.2
	c72.7-0.2,145.5-0.4,218.2-0.6c1.8,0,3.9,0.2,5.4-0.5c12.4-5.9,24.5-12.4,30.8-25.6c2.4-5,5.8-10.3,5.8-15.5
	c0.3-102,0.3-204.1,0.2-306.1C833.1,170.9,833.5,168.9,832.7,167.6z M539.9,129.7c-81.6,0-163.9,0-247.5,0
	c0.9-15.9,0.3-31.7,3.1-46.9c4.1-23,27.2-42.1,50.6-42.6c37.1-0.8,74.2-0.6,111.3-0.8c8.2,0,16.3,0.5,24.5,0
	c19.7-1.2,34,8.4,45.9,22.6c7.4,8.9,12.1,19.1,12.1,31C540,105,539.9,117.2,539.9,129.7z M807.6,547.6c0.1,1.1,0.3,2.1,0.3,3.1
	c-0.3,47.4-0.6,94.9-0.9,142.3c-0.1,17-11.1,26.2-24.2,33.9c-1.7,1-4.2,1-6.3,1.1c-41.8,0.6-83.6,1.3-125.3,1.5
	c-79.2,0.3-158.5,0.5-237.7,0.4c-104-0.2-208.1-0.7-312.1-1.1c-14.8-0.1-29.6-0.3-44.4-0.9c-3.6-0.2-7.7-1.4-10.6-3.6
	c-5-3.7-9.5-8.3-13.7-13c-4.1-4.4-5.8-10-5.8-16.1c-0.3-45.1-0.7-90.2-1-135.3c0-4,0-8,0-12.3c104.3,0,208.3,0,313.6,0
	c0,13.6,0.2,26.9,0,40.2c-0.3,17.5,8,30.5,21.3,40.8c7,5.4,14.8,8.8,23.9,8.8c23.3,0,46.6,0.3,69.9,0.1c3.4,0,6.8-2.4,10-4
	c11-5.3,20-12.9,24.7-24.3c2.4-5.9,4.2-12.3,4.7-18.6c1-14.1,1-28.3,1.4-42.9C599.6,547.6,703.5,547.6,807.6,547.6z M467.5,534
	C467.5,534,467.5,534,467.5,534c0,18.6,0.3,37.3-0.1,55.9c-0.2,12-8,20.4-19.9,20.7c-20.4,0.5-40.9,0.5-61.3,0
	c-11.6-0.3-19.4-8-19.8-19.7c-0.9-29.3-1.1-58.6-1.5-87.8c-0.1-8,0.2-16,0.5-24c0.3-10.7,10-22,20.7-22.1
	c20.8-0.4,41.6-0.2,62.3,0.7c11.6,0.5,18.8,8.7,19,20.4C467.7,496.8,467.5,515.4,467.5,534z"/>
</svg>
