<?xml version="1.0" encoding="utf-8"?>
<!-- Generator: Adobe Illustrator 25.0.1, SVG Export Plug-In . SVG Version: 6.00 Build 0)  -->
<svg version="1.1" id="Layer_1" xmlns="http://www.w3.org/2000/svg" xmlns:xlink="http://www.w3.org/1999/xlink" x="0px" y="0px"
	 viewBox="0 0 22 22" enable-background="new 0 0 22 22" xml:space="preserve">
<path fill="#1034A6" d="M11,0c6.1,0,11,4.9,11,11s-4.9,11-11,11S0,17.1,0,11S4.9,0,11,0z M17,11.8l-1-1.7c-0.1-0.2-0.3-0.3-0.6-0.3
	h-0.2V8.6c0-2.1-3.2-5.9-3.5-6.3c-0.1-0.1-0.3-0.2-0.5-0.2s-0.4,0.1-0.5,0.2C10.4,2.7,7.1,6,7.2,8.6c0,0.3,0,0.7,0,1.1H7
	c-0.2,0-0.4,0.1-0.6,0.3l-1,1.7c-0.1,0.1-0.1,0.2-0.1,0.3v2c0,0.4,0.3,0.7,0.7,0.7l0,0h1.3l0.8,1.6c0.1,0.2,0.3,0.4,0.6,0.4h0.7V18
	c0,0.2,0.1,0.3,0.3,0.3l0,0c0.2,0,0.3-0.1,0.3-0.3l0,0v-1.4h0.6v2.5c0,0.4,0.3,0.7,0.7,0.7l0,0c0.4,0,0.6-0.3,0.7-0.6l0,0v-2.5h0.6
	V18c0,0.2,0.1,0.3,0.3,0.3l0,0c0.2,0,0.3-0.1,0.3-0.3l0,0v-1.3h0.5c0.2,0,0.4-0.1,0.6-0.3l1-1.6h1.3c0.4,0,0.7-0.3,0.7-0.6l0,0v-2
	C17.1,12,17.1,11.9,17,11.8z M7.2,13.4H6.7v-1.2l0.5-1C7.3,12.1,7.2,12.9,7.2,13.4z M13.9,14.2l-0.7,1.2H9.1l-0.5-1.1
	c0-0.7,0.1-3.5,0-5.6C8.5,7.2,10.2,5,11.3,3.8C12.4,5.2,14,7.5,14,8.6L13.9,14.2z M15.8,13.4h-0.5v-2.1l0.5,1V13.4z M9.2,9.1
	c0,1.1,0.9,2.1,2.1,2.1c1.1,0,2.1-0.9,2.1-2.1S12.4,7,11.3,7C10.1,7,9.2,7.9,9.2,9.1z M11.3,7.9c0.6,0,1.1,0.5,1.1,1.1l0,0
	c0,0.6-0.5,1.1-1.1,1.1l0,0c-0.6,0-1.1-0.5-1.1-1.1l0,0C10.1,8.4,10.6,7.9,11.3,7.9L11.3,7.9z"/>
</svg>
