<?xml version="1.0" encoding="utf-8"?>
<!-- Generator: Adobe Illustrator 25.0.1, SVG Export Plug-In . SVG Version: 6.00 Build 0)  -->
<svg version="1.1" id="Layer_1" xmlns="http://www.w3.org/2000/svg" xmlns:xlink="http://www.w3.org/1999/xlink" x="0px" y="0px"
	 viewBox="0 0 17.7 17.7" enable-background="new 0 0 17.7 17.7" xml:space="preserve">
<path fill="#555555" d="M8.9,0C4,0,0,4,0,8.9s4,8.9,8.9,8.9s8.9-4,8.9-8.9C17.7,4,13.7,0,8.9,0z M12.7,9.8H9.8v2.9c0,0.5-0.4,1-1,1
	c-0.5,0-1-0.4-1-1V9.8H5c-0.5,0-1-0.4-1-1c0-0.5,0.4-1,1-1l0,0h2.9V5c0-0.5,0.4-1,1-1c0.5,0,1,0.4,1,1l0,0v2.9h2.9c0.5,0,1,0.4,1,1
	C13.7,9.4,13.2,9.8,12.7,9.8L12.7,9.8z"/>
</svg>
