<?xml version="1.0" encoding="utf-8"?>
<!-- Generator: Adobe Illustrator 25.0.1, SVG Export Plug-In . SVG Version: 6.00 Build 0)  -->
<svg version="1.1" id="Layer_1" xmlns="http://www.w3.org/2000/svg" xmlns:xlink="http://www.w3.org/1999/xlink" x="0px" y="0px"
	 viewBox="0 0 16.8 16.7" enable-background="new 0 0 16.8 16.7" xml:space="preserve">
<path fill="#FFFFFF" d="M9,13l3.3-3.3c0.3-0.3,0.3-0.9,0-1.2l0,0c-0.3-0.3-0.9-0.3-1.2,0l-1.8,1.8V3.8c0-0.5-0.4-0.9-0.9-0.9
	S7.5,3.3,7.5,3.8v6.5L5.7,8.5c-0.3-0.3-0.9-0.3-1.2,0c-0.3,0.3-0.3,0.9,0,1.2L7.8,13C8.1,13.3,8.7,13.3,9,13L9,13z M15.3,0H1.4
	C0.6,0,0,0.6,0,1.4l0,0v13.8c0,0.8,0.6,1.4,1.4,1.4l0,0h13.9c0.8,0,1.4-0.6,1.4-1.4l0,0V1.4C16.8,0.6,16.1,0,15.3,0L15.3,0z M15,8.6
	v6.3H1.7V9.3l0,0V1.7H15V8.6L15,8.6z"/>
</svg>
