<?xml version="1.0" encoding="utf-8"?>
<!-- Generator: Adobe Illustrator 25.0.1, SVG Export Plug-In . SVG Version: 6.00 Build 0)  -->
<svg version="1.1" id="Layer_1" xmlns="http://www.w3.org/2000/svg" xmlns:xlink="http://www.w3.org/1999/xlink" x="0px" y="0px"
	 viewBox="0 0 40 40" enable-background="new 0 0 40 40" xml:space="preserve">
<path fill="#1034A6" d="M20,0C9,0,0,9,0,20s9,20,20,20s20-9,20-20S31,0,20,0z M25.6,23.8c0,1.3-1,2.3-2.3,2.3h-9.6
	c-1.3,0-2.3-1-2.3-2.3v-7.6c0-1.3,1-2.3,2.3-2.3h9.6c1.3,0,2.3,1,2.3,2.3V23.8z M30.7,24.8c0,0.3-0.1,0.5-0.3,0.6
	c-0.1,0.1-0.3,0.1-0.4,0.1s-0.2,0-0.3-0.1l-2.5-1.1c0-0.2,0.1-0.4,0.1-0.6v-7.6c0-0.2,0-0.4-0.1-0.6l2.5-1.1
	c0.2-0.1,0.5-0.1,0.7,0.1l0,0c0.2,0.1,0.3,0.4,0.3,0.6C30.7,15.1,30.7,24.8,30.7,24.8z"/>
</svg>
