<?xml version="1.0" encoding="utf-8"?>
<!-- Generator: Adobe Illustrator 25.0.1, SVG Export Plug-In . SVG Version: 6.00 Build 0)  -->
<svg version="1.1" id="Layer_1" xmlns="http://www.w3.org/2000/svg" xmlns:xlink="http://www.w3.org/1999/xlink" x="0px" y="0px"
	 viewBox="0 0 40 40" enable-background="new 0 0 40 40" xml:space="preserve">
<path fill="#1034A6" d="M20,0C9,0,0,9,0,20s9,20,20,20s20-9,20-20S31,0,20,0z M28.4,15.7L28.4,15.7c0.4,0.4,0.4,1,0,1.4L26,19.4
	c-0.4,0.4-1,0.4-1.4,0s-0.4-1,0-1.4l2.4-2.3C27.4,15.3,28,15.3,28.4,15.7z M27.5,12.8c0.3,0.3,0.3,0.7,0,1l0,0l-4.8,4.5
	c-0.3,0.3-0.8,0.3-1.1,0c-0.3-0.3-0.3-0.7,0-1l0,0l4.8-4.5C26.7,12.5,27.2,12.5,27.5,12.8z M20.6,14L20.6,14l2.4-2.3
	c0.4-0.4,1-0.4,1.4,0l0,0c0.4,0.4,0.4,1,0,1.4L22,15.4c-0.4,0.4-1,0.4-1.4,0S20.2,14.4,20.6,14z M28.8,28.3
	c-0.4,0.4-0.8,0.6-1.3,0.6c-8.2-0.1-15.2-6.1-16.4-14.2c-0.1-0.5,0.1-1,0.4-1.4c0.3-0.4,0.8-0.6,1.2-0.7l3.3-0.3
	c0.8-0.1,1.6,0.4,1.8,1.2l0.9,2.7c0.2,0.7,0,1.4-0.5,1.9l-1.1,1c1.3,1.9,3,3.4,5.1,4.4l0.8-1.3c0.4-0.6,1.1-0.9,1.8-0.8l2.8,0.5
	c0.3,0.1,0.6,0.2,0.9,0.4c0.4,0.3,0.6,0.7,0.6,1.2l0.2,3.4C29.3,27.4,29.2,27.9,28.8,28.3z"/>
</svg>
