<?xml version="1.0" encoding="utf-8"?>
<!-- Generator: Adobe Illustrator 25.0.1, SVG Export Plug-In . SVG Version: 6.00 Build 0)  -->
<svg version="1.1" id="Layer_1" xmlns="http://www.w3.org/2000/svg" xmlns:xlink="http://www.w3.org/1999/xlink" x="0px" y="0px"
	 viewBox="0 0 17 17" enable-background="new 0 0 17 17" xml:space="preserve">
<path fill="#555555" d="M14.4,0H2.6C1.2,0,0,1.2,0,2.6v13.5c0,0.4,0.2,0.7,0.6,0.9c0.1,0,0.2,0,0.3,0c0.2,0,0.5-0.1,0.7-0.3l3.1-3.1
	h9.7c1.4,0,2.6-1.2,2.6-2.6V2.6C17,1.2,15.8,0,14.4,0z M15.1,11c0,0.4-0.3,0.7-0.7,0.7H4.3c-0.2,0-0.5,0.1-0.7,0.3l-1.8,1.8V2.6
	c0-0.4,0.3-0.7,0.7-0.7h11.8c0.4,0,0.7,0.3,0.7,0.7L15.1,11z"/>
</svg>
