<?xml version="1.0" encoding="utf-8"?>
<!-- Generator: Adobe Illustrator 25.0.1, SVG Export Plug-In . SVG Version: 6.00 Build 0)  -->
<svg version="1.1" id="Layer_1" xmlns="http://www.w3.org/2000/svg" xmlns:xlink="http://www.w3.org/1999/xlink" x="0px" y="0px"
	 viewBox="0 0 20.4 20.4" enable-background="new 0 0 20.4 20.4" xml:space="preserve">
<path fill="#555555" d="M19.9,18.5l-3.7-3.7c1.2-1.5,2-3.5,2-5.6c0-5-4-9-9-9c-5,0-9,4-9,9c0,5,4,9,9,9c2.1,0,4.1-0.7,5.6-2l3.7,3.7
	c0.2,0.2,0.5,0.3,0.7,0.3s0.5-0.1,0.7-0.3C20.3,19.5,20.3,18.9,19.9,18.5z M2.2,9.2c0-3.9,3.1-7,7-7c3.9,0,7,3.1,7,7
	c0,1.9-0.8,3.7-2,4.9c0,0,0,0,0,0s0,0,0,0c-1.3,1.3-3,2-4.9,2C5.3,16.2,2.2,13.1,2.2,9.2z"/>
</svg>
