<?xml version="1.0" encoding="utf-8"?>
<!-- Generator: Adobe Illustrator 25.0.1, SVG Export Plug-In . SVG Version: 6.00 Build 0)  -->
<svg version="1.1" id="Layer_1" xmlns="http://www.w3.org/2000/svg" xmlns:xlink="http://www.w3.org/1999/xlink" x="0px" y="0px"
	 viewBox="0 0 383.8 382.6" enable-background="new 0 0 383.8 382.6" xml:space="preserve">
<path fill="#1034A6" d="M127.8,382.3c0-11.4,0-22.9,0-34.3c0-11.7-0.2-23.3,0.1-35c0.1-2.7,1.2-5.9,2.9-8c53.5-63.5,107.1-126.8,160.7-190.1
	c1-1.2,2-2.5,2.5-4.4c-7.7,6.4-15.4,12.8-23.1,19.2c-49,40.9-98.1,81.7-147,122.7c-3.4,2.8-5.7,3-9.5,0.9
	C78,233.6,41.6,214.3,5.1,194.9c-1.4-0.8-2.8-1.6-5.1-3C128.1,127.8,255.5,64.1,383.8,0c-21.4,121.2-42.6,241.5-64,362.6
	c-41.7-22.2-82.9-44.2-124.5-66.4c-22.2,28.9-44.3,57.6-66.5,86.4C128.5,382.5,128.1,382.4,127.8,382.3z"/>
</svg>
